<?xml version="1.0" encoding="UTF-8" standalone="no"?>
<!-- Created with Inkscape (http://www.inkscape.org/) -->

<svg
   xmlns:dc="http://purl.org/dc/elements/1.1/"
   xmlns:cc="http://creativecommons.org/ns#"
   xmlns:rdf="http://www.w3.org/1999/02/22-rdf-syntax-ns#"
   xmlns:svg="http://www.w3.org/2000/svg"
   xmlns="http://www.w3.org/2000/svg"
   xmlns:sodipodi="http://sodipodi.sourceforge.net/DTD/sodipodi-0.dtd"
   xmlns:inkscape="http://www.inkscape.org/namespaces/inkscape"
   width="133.61458mm"
   height="133.61458mm"
   viewBox="0 0 133.61458 133.61458"
   version="1.1"
   id="svg8"
   inkscape:version="0.92.2 (30a58d1, 2017-08-07)"
   sodipodi:docname="drawing.svg">
  <defs
     id="defs2" />
  <sodipodi:namedview
     id="base"
     pagecolor="#ffffff"
     bordercolor="#666666"
     borderopacity="1.0"
     inkscape:pageopacity="0.0"
     inkscape:pageshadow="2"
     inkscape:zoom="0.7"
     inkscape:cx="198.86724"
     inkscape:cy="162.82075"
     inkscape:document-units="mm"
     inkscape:current-layer="g3781"
     showgrid="false"
     fit-margin-top="0"
     fit-margin-left="0"
     fit-margin-right="0"
     fit-margin-bottom="0"
     inkscape:window-width="1366"
     inkscape:window-height="744"
     inkscape:window-x="0"
     inkscape:window-y="24"
     inkscape:window-maximized="1" />
  <metadata
     id="metadata5">
    <rdf:RDF>
      <cc:Work
         rdf:about="">
        <dc:format>image/svg+xml</dc:format>
        <dc:type
           rdf:resource="http://purl.org/dc/dcmitype/StillImage" />
        <dc:title></dc:title>
      </cc:Work>
    </rdf:RDF>
  </metadata>
  <g
     inkscape:label="Layer 1"
     inkscape:groupmode="layer"
     id="layer1"
     transform="translate(-29.198661,-61.615328)">
    <g
       id="g3781"
       transform="matrix(0.26458333,0,0,0.26458333,29.198661,61.615328)">
      <circle
         id="circle3699"
         r="252.5"
         cy="252.5"
         cx="252.5"
         style="fill:#439fe0;fill-opacity:1" />
      <polygon
         id="polygon3701"
         points="277,318.2 310.9,284.3 196.3,169.8 146,119.5 102.4,143.6 162.5,203.6 "
         style="fill:#ffffff"
         transform="matrix(1.3008886,0,0,-1.3008886,-72.239568,570.8353)" />
      <path
         id="path3703"
         d="m 402.32461,217.38386 c -61.66212,23.28591 -116.29945,62.05239 -162.87126,108.6242 L 199.25589,366.20552 176.75052,343.70015 325.83236,194.61831 294.48094,163.26689 145.52919,312.34873 123.02382,289.84336 309.96151,102.90566 417.02465,209.96879 c -4.6832,2.99205 -9.62658,5.46374 -14.70004,7.41507 z"
         style="fill:#4cdbc4;stroke-width:1.30088866"
         inkscape:connector-curvature="0" />
      <g
         id="g3709"
         transform="matrix(1.3008886,0,0,-1.3008886,-72.239568,570.8353)">
        <path
           id="path3705"
           d="m 293.8,359.7 12.1,12.1 0.2,-0.2 c 24.2,20.3 60.8,18.2 82.3,-6.5 19.4,-22.3 18.9,-56.5 -1.2,-78.3 -3.4,-3.7 -7.2,-6.8 -11.2,-9.4 z"
           style="fill:#324a5e"
           inkscape:connector-curvature="0" />
        <path
           id="path3707"
           d="M 227.6,205.3 198,234.9 c -0.9,0.9 -0.9,2.4 0,3.3 l 29.2,29.2 c 0.9,0.9 2.4,0.9 3.3,0 l 29.6,-29.6 c 0.9,-0.9 0.9,-2.4 0,-3.3 l -29.2,-29.2 c -0.9,-0.9 -2.3,-0.9 -3.3,0 z"
           style="fill:#324a5e"
           inkscape:connector-curvature="0" />
      </g>
      <g
         id="g3717"
         transform="matrix(1.3008886,0,0,-1.3008886,-72.239568,570.8353)">
        <path
           id="path3711"
           d="m 232.9,218.1 -22.1,22.1 c -1,1 -2.7,1 -3.8,0 v 0 c -1,-1 -1,-2.7 0,-3.8 l 22.1,-22.1 c 1,-1 2.7,-1 3.8,0 v 0 c 1,1.1 1,2.8 0,3.8 z"
           style="fill:#2b3b4e"
           inkscape:connector-curvature="0" />
        <path
           id="path3713"
           d="m 242,227.3 -22.1,22.1 c -1,1 -2.7,1 -3.8,0 v 0 c -1,-1 -1,-2.7 0,-3.8 l 22.1,-22.1 c 1,-1 2.7,-1 3.8,0 v 0 c 1.1,1 1.1,2.7 0,3.8 z"
           style="fill:#2b3b4e"
           inkscape:connector-curvature="0" />
        <path
           id="path3715"
           d="M 251.1,236.4 229,258.5 c -1,1 -2.7,1 -3.8,0 v 0 c -1,-1 -1,-2.7 0,-3.8 l 22.1,-22.1 c 1,-1 2.7,-1 3.8,0 v 0 c 1.1,1.1 1.1,2.8 0,3.8 z"
           style="fill:#2b3b4e"
           inkscape:connector-curvature="0" />
      </g>
      <g
         id="g3719" />
      <g
         id="g3721" />
      <g
         id="g3723" />
      <g
         id="g3725" />
      <g
         id="g3727" />
      <g
         id="g3729" />
      <g
         id="g3731" />
      <g
         id="g3733" />
      <g
         id="g3735" />
      <g
         id="g3737" />
      <g
         id="g3739" />
      <g
         id="g3741" />
      <g
         id="g3743" />
      <g
         id="g3745" />
      <g
         id="g3747" />
    </g>
  </g>
</svg>
